<?xml version="1.0" encoding="UTF-8" standalone="no"?>
<svg
   xmlns:dc="http://purl.org/dc/elements/1.1/"
   xmlns:cc="http://creativecommons.org/ns#"
   xmlns:rdf="http://www.w3.org/1999/02/22-rdf-syntax-ns#"
   xmlns:svg="http://www.w3.org/2000/svg"
   xmlns="http://www.w3.org/2000/svg"
   xmlns:sodipodi="http://sodipodi.sourceforge.net/DTD/sodipodi-0.dtd"
   xmlns:inkscape="http://www.inkscape.org/namespaces/inkscape"
   width="763"
   height="111"
   viewBox="0 0 763 111"
   fill="none"
   version="1.1"
   id="svg64"
   sodipodi:docname="horizontal_color_sessions_stacked.svg"
   inkscape:version="1.0.1 (c497b03c, 2020-09-10)">
  <metadata
     id="metadata70">
    <rdf:RDF>
      <cc:Work
         rdf:about="">
        <dc:format>image/svg+xml</dc:format>
        <dc:type
           rdf:resource="http://purl.org/dc/dcmitype/StillImage" />
        <dc:title />
      </cc:Work>
    </rdf:RDF>
  </metadata>
  <defs
     id="defs68" />
  <sodipodi:namedview
     pagecolor="#ffffff"
     bordercolor="#666666"
     borderopacity="1"
     objecttolerance="10"
     gridtolerance="10"
     guidetolerance="10"
     inkscape:pageopacity="0"
     inkscape:pageshadow="2"
     inkscape:window-width="1928"
     inkscape:window-height="1098"
     id="namedview66"
     showgrid="false"
     inkscape:zoom="2.1341492"
     inkscape:cx="220.39199"
     inkscape:cy="116.49474"
     inkscape:window-x="1676"
     inkscape:window-y="23"
     inkscape:window-maximized="0"
     inkscape:current-layer="svg64"
     inkscape:document-rotation="0"
     showguides="true"
     inkscape:guide-bbox="true"
     inkscape:snap-page="false">
    <sodipodi:guide
       position="146.17595,35.45341"
       orientation="1,0"
       id="guide972" />
  </sodipodi:namedview>
  <g
     aria-label="knurling-sessions"
     id="text74"
     style="font-style:normal;font-weight:normal;font-size:78.6667px;line-height:0.95;font-family:sans-serif;letter-spacing:-3.35px;fill:#000000;fill-opacity:1;stroke:none">
    <path
       d="m 148.17595,49.673216 q -0.68576,0 -1.16579,-0.474573 -0.48002,-0.474574 -0.48002,-1.152536 V 3.165035 q 0,-0.6779617 0.48002,-1.1525351 0.48003,-0.4745733 1.16579,-0.4745733 h 5.55462 q 0.75434,0 1.16579,0.4745733 0.48002,0.4745734 0.48002,1.1525351 v 23.186294 l 11.52071,-10.779592 q 0.68576,-0.54237 1.09721,-0.813555 0.48002,-0.33898 1.44009,-0.33898 h 6.37753 q 0.68576,0 1.09721,0.406777 0.41145,0.406777 0.41145,1.084739 0,0.271184 -0.13715,0.610166 -0.13715,0.33898 -0.54861,0.610165 l -14.12657,13.084663 15.84097,16.813453 q 0.68575,0.677962 0.68575,1.152535 0,0.677962 -0.48003,1.084739 -0.41145,0.406777 -1.02863,0.406777 h -6.51469 q -1.02863,0 -1.50866,-0.271185 -0.41146,-0.33898 -1.02864,-0.88135 L 155.37638,34.893649 v 13.152458 q 0,0.677962 -0.48002,1.152536 -0.41145,0.474573 -1.16579,0.474573 z"
       style="font-style:normal;font-variant:normal;font-weight:500;font-stretch:normal;font-size:78.6667px;font-family:Rubik;-inkscape-font-specification:'Rubik Medium';fill:#742a2a;fill-opacity:1;stroke-width:0.866755"
       id="path899" />
    <path
       d="m 182.95726,49.673216 q -0.68576,0 -1.16579,-0.474573 -0.48002,-0.474574 -0.48002,-1.152536 V 16.04631 q 0,-0.677961 0.48002,-1.152535 0.48003,-0.474573 1.16579,-0.474573 h 5.6232 q 0.68575,0 1.16578,0.474573 0.48003,0.474574 0.48003,1.152535 v 2.779643 q 1.78296,-2.169477 4.52599,-3.593197 2.8116,-1.491516 6.92614,-1.491516 4.18311,0 7.26901,1.898293 3.0859,1.830497 4.73172,5.220306 1.71439,3.389809 1.71439,8.135542 v 19.050726 q 0,0.677962 -0.48003,1.152536 -0.48004,0.474573 -1.16579,0.474573 h -6.03465 q -0.68576,0 -1.16579,-0.474573 -0.48002,-0.474574 -0.48002,-1.152536 V 29.402158 q 0,-3.932179 -1.9887,-6.169453 -1.92012,-2.237274 -5.6232,-2.237274 -3.56593,0 -5.69177,2.237274 -2.12584,2.237274 -2.12584,6.169453 v 18.643949 q 0,0.677962 -0.48004,1.152536 -0.48003,0.474573 -1.16578,0.474573 z"
       style="font-style:normal;font-variant:normal;font-weight:500;font-stretch:normal;font-size:78.6667px;font-family:Rubik;-inkscape-font-specification:'Rubik Medium';fill:#742a2a;fill-opacity:1;stroke-width:0.866755"
       id="path901" />
    <path
       d="m 234.35207,50.351178 q -4.1831,0 -7.26901,-1.830497 -3.01732,-1.898294 -4.66314,-5.288103 -1.64581,-3.457605 -1.64581,-8.135541 V 16.04631 q 0,-0.677961 0.48002,-1.152535 0.48003,-0.474573 1.16579,-0.474573 h 6.03466 q 0.75432,0 1.16578,0.474573 0.48003,0.474574 0.48003,1.152535 v 18.64395 q 0,8.406726 7.47474,8.406726 3.56593,0 5.6232,-2.237273 2.12585,-2.237275 2.12585,-6.169453 V 16.04631 q 0,-0.677961 0.48002,-1.152535 0.48003,-0.474573 1.16579,-0.474573 h 6.03465 q 0.68575,0 1.16578,0.474573 0.48004,0.474574 0.48004,1.152535 v 31.999797 q 0,0.677962 -0.48004,1.152536 -0.48003,0.474573 -1.16578,0.474573 h -5.55463 q -0.75433,0 -1.23436,-0.474573 -0.41145,-0.474574 -0.41145,-1.152536 v -2.779643 q -1.85154,2.372867 -4.59457,3.72879 -2.74301,1.355924 -6.85756,1.355924 z"
       style="font-style:normal;font-variant:normal;font-weight:500;font-stretch:normal;font-size:78.6667px;font-family:Rubik;-inkscape-font-specification:'Rubik Medium';fill:#742a2a;fill-opacity:1;stroke-width:0.866755"
       id="path903" />
    <path
       d="m 262.43441,49.673216 q -0.68576,0 -1.16579,-0.474573 -0.48003,-0.474574 -0.48003,-1.152536 V 16.114106 q 0,-0.745757 0.48003,-1.220331 0.48003,-0.474573 1.16579,-0.474573 h 5.55462 q 0.68576,0 1.16579,0.474573 0.5486,0.474574 0.5486,1.220331 v 2.779644 q 1.57724,-2.169478 4.04596,-3.322013 2.53729,-1.152535 5.82893,-1.152535 h 2.8116 q 0.75432,0 1.16578,0.474573 0.48003,0.474574 0.48003,1.152535 v 4.881325 q 0,0.677962 -0.48003,1.152535 -0.41146,0.474573 -1.16578,0.474573 h -5.3489 q -3.29163,0 -5.14317,1.830497 -1.78297,1.762701 -1.78297,5.016918 v 18.643949 q 0,0.677962 -0.48003,1.152536 -0.48002,0.474573 -1.23436,0.474573 z"
       style="font-style:normal;font-variant:normal;font-weight:500;font-stretch:normal;font-size:78.6667px;font-family:Rubik;-inkscape-font-specification:'Rubik Medium';fill:#742a2a;fill-opacity:1;stroke-width:0.866755"
       id="path905" />
    <path
       d="m 288.24516,49.673216 q -0.68576,0 -1.16578,-0.474573 -0.48004,-0.474574 -0.48004,-1.152536 V 3.165035 q 0,-0.6779617 0.48004,-1.1525351 0.48002,-0.4745733 1.16578,-0.4745733 h 5.69178 q 0.68575,0 1.16578,0.4745733 0.48003,0.4745734 0.48003,1.1525351 v 44.881072 q 0,0.677962 -0.48003,1.152536 -0.48003,0.474573 -1.16578,0.474573 z"
       style="font-style:normal;font-variant:normal;font-weight:500;font-stretch:normal;font-size:78.6667px;font-family:Rubik;-inkscape-font-specification:'Rubik Medium';fill:#742a2a;fill-opacity:1;stroke-width:0.866755"
       id="path907" />
    <path
       d="m 303.47172,49.673216 q -0.68576,0 -1.1658,-0.474573 -0.48003,-0.474574 -0.48003,-1.152536 V 16.04631 q 0,-0.677961 0.48003,-1.152535 0.48004,-0.474573 1.1658,-0.474573 h 5.69177 q 0.75433,0 1.16579,0.474573 0.48002,0.474574 0.48002,1.152535 v 31.999797 q 0,0.677962 -0.48002,1.152536 -0.41146,0.474573 -1.16579,0.474573 z M 303.19741,8.5887298 q -0.68576,0 -1.16578,-0.474574 -0.48003,-0.474572 -0.48003,-1.152534 V 2.0802964 q 0,-0.6779618 0.48003,-1.15253519 0.48002,-0.4745733 1.16578,-0.4745733 h 6.24038 q 0.75433,0 1.23436,0.4745733 0.48003,0.47457339 0.48003,1.15253519 v 4.8813254 q 0,0.677962 -0.48003,1.152534 -0.48003,0.474574 -1.23436,0.474574 z"
       style="font-style:normal;font-variant:normal;font-weight:500;font-stretch:normal;font-size:78.6667px;font-family:Rubik;-inkscape-font-specification:'Rubik Medium';fill:#742a2a;fill-opacity:1;stroke-width:0.866755"
       id="path909" />
    <path
       d="m 318.63289,49.673216 q -0.68575,0 -1.16578,-0.474573 -0.48003,-0.474574 -0.48003,-1.152536 V 16.04631 q 0,-0.677961 0.48003,-1.152535 0.48003,-0.474573 1.16578,-0.474573 h 5.6232 q 0.68576,0 1.16579,0.474573 0.48003,0.474574 0.48003,1.152535 v 2.779643 q 1.78297,-2.169477 4.52599,-3.593197 2.8116,-1.491516 6.92613,-1.491516 4.18312,0 7.26902,1.898293 3.0859,1.830497 4.73172,5.220306 1.71438,3.389809 1.71438,8.135542 v 19.050726 q 0,0.677962 -0.48002,1.152536 -0.48003,0.474573 -1.16579,0.474573 h -6.03465 q -0.68576,0 -1.16578,-0.474573 -0.48004,-0.474574 -0.48004,-1.152536 V 29.402158 q 0,-3.932179 -1.98869,-6.169453 -1.92011,-2.237274 -5.6232,-2.237274 -3.56593,0 -5.69177,2.237274 -2.12585,2.237274 -2.12585,6.169453 v 18.643949 q 0,0.677962 -0.48002,1.152536 -0.48003,0.474573 -1.16579,0.474573 z"
       style="font-style:normal;font-variant:normal;font-weight:500;font-stretch:normal;font-size:78.6667px;font-family:Rubik;-inkscape-font-specification:'Rubik Medium';fill:#742a2a;fill-opacity:1;stroke-width:0.866755"
       id="path911" />
    <path
       d="m 372.90789,64.588375 q -5.00602,0 -8.22908,-1.288127 -3.22305,-1.288127 -5.07459,-3.118624 -1.85154,-1.830497 -2.67444,-3.660994 -0.75434,-1.7627 -0.82292,-2.779643 -0.0686,-0.677962 0.41145,-1.220332 0.54861,-0.474572 1.23437,-0.474572 h 5.96608 q 0.68576,0 1.09721,0.271184 0.41145,0.338981 0.68575,1.152535 0.41145,0.88135 1.09721,1.898293 0.68576,1.016942 2.05727,1.694905 1.44009,0.745757 3.90881,0.745757 2.60587,0 4.38884,-0.745757 1.78297,-0.745758 2.67444,-2.508459 0.96007,-1.762701 0.96007,-4.881325 v -4.610141 q -1.64582,1.96609 -4.25169,3.186421 -2.5373,1.220331 -6.30895,1.220331 -3.63451,0 -6.37754,-1.152535 -2.67445,-1.220331 -4.45741,-3.322012 -1.78297,-2.169478 -2.74303,-5.084714 -0.89148,-2.915236 -1.02863,-6.440637 -0.0686,-1.830497 0,-3.660994 0.13715,-3.389809 1.02863,-6.305045 0.96006,-2.915236 2.74303,-5.084714 1.78296,-2.237274 4.45741,-3.457605 2.74303,-1.220331 6.37754,-1.220331 3.9088,0 6.58325,1.491516 2.67445,1.42372 4.38884,3.593197 v -2.711847 q 0,-0.745757 0.48002,-1.220331 0.48004,-0.474573 1.16579,-0.474573 h 5.55463 q 0.68575,0 1.16579,0.474573 0.48002,0.474574 0.48002,1.220331 l 0.0686,32.67776 q 0,4.881324 -1.85154,8.406726 -1.85154,3.525401 -5.6232,5.423694 -3.70308,1.966089 -9.532,1.966089 z m -0.34288,-22.304943 q 2.8116,0 4.52599,-1.220331 1.71439,-1.220331 2.53729,-3.18642 0.82291,-1.96609 0.96007,-3.999976 0.0686,-0.88135 0.0686,-2.237273 0,-1.355924 -0.0686,-2.169478 -0.13716,-2.101682 -0.96007,-3.999975 -0.8229,-1.966089 -2.53729,-3.18642 -1.71439,-1.288128 -4.52599,-1.288128 -2.8116,0 -4.52599,1.288128 -1.71439,1.220331 -2.46872,3.254216 -0.68576,2.033886 -0.82291,4.474548 -0.13715,1.627109 0,3.322014 0.13715,2.372865 0.82291,4.474547 0.75433,2.033886 2.46872,3.254217 1.71439,1.220331 4.52599,1.220331 z"
       style="font-style:normal;font-variant:normal;font-weight:500;font-stretch:normal;font-size:78.6667px;font-family:Rubik;-inkscape-font-specification:'Rubik Medium';fill:#742a2a;fill-opacity:1;stroke-width:0.866755"
       id="path913" />
    <path
       d="m 161.48413,110.41826 q -4.11454,0 -7.06329,-0.94914 -2.88017,-0.94915 -4.73172,-2.37287 -1.85154,-1.42372 -2.74302,-2.84744 -0.89148,-1.42372 -0.96006,-2.37286 -0.0686,-0.74577 0.41146,-1.15254 0.5486,-0.47457 1.16578,-0.47457 h 5.41747 q 0.27431,0 0.48003,0.0678 0.20573,0.0678 0.54861,0.40678 0.89148,0.74575 1.85154,1.55931 1.02863,0.81355 2.40015,1.42372 1.37151,0.54237 3.42877,0.54237 2.67445,0 4.45742,-1.01694 1.85154,-1.08474 1.85154,-3.05084 0,-1.423712 -0.82291,-2.305063 -0.75432,-0.88135 -2.88017,-1.559312 -2.12585,-0.745758 -6.03465,-1.559312 -3.84024,-0.88135 -6.37753,-2.237273 -2.5373,-1.355924 -3.77166,-3.38981 -1.23436,-2.033886 -1.23436,-4.745733 0,-2.644051 1.57723,-5.016917 1.64582,-2.440662 4.8003,-3.999975 3.22305,-1.559312 7.95477,-1.559312 3.70308,0 6.44611,0.949147 2.74301,0.88135 4.52598,2.237274 1.85154,1.355924 2.8116,2.779644 0.96006,1.355923 1.02863,2.372865 0.0686,0.745759 -0.41145,1.220332 -0.48002,0.406777 -1.0972,0.406777 h -5.0746 q -0.34288,0 -0.61718,-0.135592 -0.27431,-0.135593 -0.5486,-0.338981 -0.75434,-0.677962 -1.64582,-1.423721 -0.89148,-0.813553 -2.19442,-1.355923 -1.23436,-0.542369 -3.29163,-0.542369 -2.60587,0 -3.97738,1.152535 -1.37151,1.084739 -1.37151,2.779643 0,1.152535 0.61718,2.033885 0.68575,0.813555 2.67444,1.559313 1.98869,0.745758 6.03466,1.559312 4.59456,0.813554 7.26901,2.440662 2.74303,1.559312 3.84023,3.660994 1.16579,2.033886 1.16579,4.542346 0,3.050824 -1.85154,5.491484 -1.78297,2.44067 -5.3489,3.86439 -3.49736,1.35593 -8.7091,1.35593 z"
       style="font-style:normal;font-variant:normal;font-weight:500;font-stretch:normal;font-size:78.6667px;font-family:Rubik;-inkscape-font-specification:'Rubik Medium';fill:#e53e3e;fill-opacity:1;stroke-width:0.866755"
       id="path917" />
    <path
       d="m 196.84619,110.41826 q -7.6119,0 -12.06931,-4.33895 -4.45742,-4.33896 -4.80029,-12.338905 -0.0686,-0.677962 -0.0686,-1.694904 0,-1.08474 0.0686,-1.694905 0.27429,-5.152509 2.33156,-8.813503 2.12585,-3.728791 5.82893,-5.694879 3.70309,-2.033886 8.70911,-2.033886 5.55462,0 9.32628,2.30507 3.77166,2.237274 5.69177,6.305045 1.92012,3.999974 1.92012,9.288077 v 1.42372 q 0,0.677961 -0.48004,1.152535 -0.48002,0.474573 -1.23436,0.474573 h -22.76709 q 0,0 0,0.203389 0,0.203388 0,0.33898 0.0686,2.372867 0.89148,4.406749 0.89148,1.966094 2.53729,3.186424 1.7144,1.22033 4.04597,1.22033 1.92012,0 3.22305,-0.54237 1.30294,-0.61016 2.12584,-1.35592 0.82291,-0.74576 1.16579,-1.22033 0.61718,-0.81356 0.96006,-0.94915 0.41145,-0.203386 1.16578,-0.203386 h 5.8975 q 0.68576,0 1.09722,0.406776 0.48002,0.40678 0.41145,1.01694 -0.0686,1.08474 -1.16579,2.64405 -1.02863,1.55931 -3.01732,3.05083 -1.9887,1.49152 -5.00602,2.50846 -2.94875,0.94914 -6.78898,0.94914 z m -7.54332,-21.355791 h 15.1552 V 88.85908 q 0,-2.644051 -0.89148,-4.61014 -0.89149,-2.033885 -2.60587,-3.118624 -1.71439,-1.152535 -4.11453,-1.152535 -2.40015,0 -4.11455,1.152535 -1.71438,1.084739 -2.60587,3.118624 -0.8229,1.966089 -0.8229,4.61014 z"
       style="font-style:normal;font-variant:normal;font-weight:500;font-stretch:normal;font-size:78.6667px;font-family:Rubik;-inkscape-font-specification:'Rubik Medium';fill:#e53e3e;fill-opacity:1;stroke-width:0.866755"
       id="path919" />
    <path
       d="m 231.58569,110.41826 q -4.11454,0 -7.06329,-0.94914 -2.88017,-0.94915 -4.73171,-2.37287 -1.85154,-1.42372 -2.74303,-2.84744 -0.89149,-1.42372 -0.96006,-2.37286 -0.0686,-0.74577 0.41145,-1.15254 0.54861,-0.47457 1.16579,-0.47457 h 5.41747 q 0.2743,0 0.48004,0.0678 0.20572,0.0678 0.5486,0.40678 0.89148,0.74575 1.85154,1.55931 1.02863,0.81355 2.40014,1.42372 1.37152,0.54237 3.42878,0.54237 2.67445,0 4.45741,-1.01694 1.85155,-1.08474 1.85155,-3.05084 0,-1.423712 -0.8229,-2.305063 -0.75434,-0.88135 -2.88019,-1.559312 -2.12583,-0.745758 -6.03465,-1.559312 -3.84023,-0.88135 -6.37753,-2.237273 -2.5373,-1.355924 -3.77166,-3.38981 -1.23436,-2.033886 -1.23436,-4.745733 0,-2.644051 1.57725,-5.016917 1.64581,-2.440662 4.80028,-3.999975 3.22306,-1.559312 7.95477,-1.559312 3.70308,0 6.44611,0.949147 2.74302,0.88135 4.52599,2.237274 1.85155,1.355924 2.8116,2.779644 0.96006,1.355923 1.02863,2.372865 0.0686,0.745759 -0.41145,1.220332 -0.48003,0.406777 -1.09721,0.406777 h -5.07459 q -0.34288,0 -0.61718,-0.135592 -0.27431,-0.135593 -0.54861,-0.338981 -0.75433,-0.677962 -1.64581,-1.423721 -0.89149,-0.813553 -2.19442,-1.355923 -1.23436,-0.542369 -3.29163,-0.542369 -2.60588,0 -3.97738,1.152535 -1.37152,1.084739 -1.37152,2.779643 0,1.152535 0.61718,2.033885 0.68576,0.813555 2.67445,1.559313 1.98869,0.745758 6.03465,1.559312 4.59457,0.813554 7.26901,2.440662 2.74303,1.559312 3.84024,3.660994 1.16578,2.033886 1.16578,4.542346 0,3.050824 -1.85154,5.491484 -1.78296,2.44067 -5.34889,3.86439 -3.49736,1.35593 -8.7091,1.35593 z"
       style="font-style:normal;font-variant:normal;font-weight:500;font-stretch:normal;font-size:78.6667px;font-family:Rubik;-inkscape-font-specification:'Rubik Medium';fill:#e53e3e;fill-opacity:1;stroke-width:0.866755"
       id="path921" />
    <path
       d="m 265.09622,110.41826 q -4.11453,0 -7.06328,-0.94914 -2.88018,-0.94915 -4.73172,-2.37287 -1.85154,-1.42372 -2.74302,-2.84744 -0.89149,-1.42372 -0.96006,-2.37286 -0.0686,-0.74577 0.41146,-1.15254 0.5486,-0.47457 1.16578,-0.47457 h 5.41747 q 0.27431,0 0.48003,0.0678 0.20573,0.0678 0.5486,0.40678 0.89149,0.74575 1.85154,1.55931 1.02864,0.81355 2.40016,1.42372 1.3715,0.54237 3.42877,0.54237 2.67445,0 4.45742,-1.01694 1.85154,-1.08474 1.85154,-3.05084 0,-1.423712 -0.82291,-2.305063 -0.75433,-0.88135 -2.88017,-1.559312 -2.12585,-0.745758 -6.03465,-1.559312 -3.84024,-0.88135 -6.37754,-2.237273 -2.5373,-1.355924 -3.77166,-3.38981 -1.23436,-2.033886 -1.23436,-4.745733 0,-2.644051 1.57724,-5.016917 1.64582,-2.440662 4.8003,-3.999975 3.22304,-1.559312 7.95476,-1.559312 3.70309,0 6.44611,0.949147 2.74302,0.88135 4.52599,2.237274 1.85154,1.355924 2.8116,2.779644 0.96005,1.355923 1.02863,2.372865 0.0686,0.745759 -0.41145,1.220332 -0.48003,0.406777 -1.09721,0.406777 H 273.051 q -0.34289,0 -0.61718,-0.135592 -0.27431,-0.135593 -0.54861,-0.338981 -0.75433,-0.677962 -1.64582,-1.423721 -0.89147,-0.813553 -2.19441,-1.355923 -1.23436,-0.542369 -3.29163,-0.542369 -2.60588,0 -3.97739,1.152535 -1.37151,1.084739 -1.37151,2.779643 0,1.152535 0.61718,2.033885 0.68575,0.813555 2.67445,1.559313 1.98869,0.745758 6.03466,1.559312 4.59455,0.813554 7.26901,2.440662 2.74302,1.559312 3.84023,3.660994 1.16579,2.033886 1.16579,4.542346 0,3.050824 -1.85155,5.491484 -1.78296,2.44067 -5.3489,3.86439 -3.49735,1.35593 -8.7091,1.35593 z"
       style="font-style:normal;font-variant:normal;font-weight:500;font-stretch:normal;font-size:78.6667px;font-family:Rubik;-inkscape-font-specification:'Rubik Medium';fill:#e53e3e;fill-opacity:1;stroke-width:0.866755"
       id="path923" />
    <path
       d="m 286.74316,109.74031 q -0.68575,0 -1.16579,-0.47458 -0.48003,-0.47457 -0.48003,-1.15254 V 76.113398 q 0,-0.677961 0.48003,-1.152535 0.48004,-0.474573 1.16579,-0.474573 h 5.69177 q 0.75433,0 1.16579,0.474573 0.48003,0.474574 0.48003,1.152535 v 31.999792 q 0,0.67797 -0.48003,1.15254 -0.41146,0.47458 -1.16579,0.47458 z m -0.2743,-41.084492 q -0.68576,0 -1.16579,-0.474574 -0.48003,-0.474572 -0.48003,-1.152534 v -4.881325 q 0,-0.677962 0.48003,-1.152535 0.48003,-0.474574 1.16579,-0.474574 h 6.24038 q 0.75433,0 1.23436,0.474574 0.48002,0.474573 0.48002,1.152535 v 4.881325 q 0,0.677962 -0.48002,1.152534 -0.48003,0.474574 -1.23436,0.474574 z"
       style="font-style:normal;font-variant:normal;font-weight:500;font-stretch:normal;font-size:78.6667px;font-family:Rubik;-inkscape-font-specification:'Rubik Medium';fill:#e53e3e;fill-opacity:1;stroke-width:0.866755"
       id="path925" />
    <path
       d="m 316.0309,110.41826 q -5.48604,0 -9.2577,-1.89829 -3.70308,-1.89829 -5.69178,-5.35589 -1.92011,-3.457614 -2.19442,-8.067751 -0.0686,-1.220331 -0.0686,-2.983032 0,-1.762701 0.0686,-2.983033 0.27431,-4.677936 2.263,-8.067745 2.05726,-3.457605 5.76034,-5.355898 3.77166,-1.898293 9.12056,-1.898293 5.3489,0 9.05198,1.898293 3.77166,1.898293 5.76035,5.355898 2.05727,3.389809 2.33157,8.067745 0.0686,1.220332 0.0686,2.983033 0,1.762701 -0.0686,2.983032 -0.2743,4.610137 -2.26299,8.067751 -1.92012,3.4576 -5.69178,5.35589 -3.70308,1.89829 -9.18913,1.89829 z m 0,-6.71182 q 3.63451,0 5.6232,-2.23727 1.9887,-2.305071 2.19442,-6.711822 0.0686,-1.016943 0.0686,-2.644051 0,-1.627108 -0.0686,-2.644051 -0.20572,-4.406752 -2.19442,-6.644026 -1.98869,-2.30507 -5.6232,-2.30507 -3.6345,0 -5.6232,2.30507 -1.98869,2.237274 -2.19442,6.644026 -0.0686,1.016943 -0.0686,2.644051 0,1.627108 0.0686,2.644051 0.20573,4.406751 2.19442,6.711822 1.9887,2.23727 5.6232,2.23727 z"
       style="font-style:normal;font-variant:normal;font-weight:500;font-stretch:normal;font-size:78.6667px;font-family:Rubik;-inkscape-font-specification:'Rubik Medium';fill:#e53e3e;fill-opacity:1;stroke-width:0.866755"
       id="path927" />
    <path
       d="m 339.56689,109.74031 q -0.68576,0 -1.16579,-0.47458 -0.48003,-0.47457 -0.48003,-1.15254 V 76.113398 q 0,-0.677961 0.48003,-1.152535 0.48003,-0.474573 1.16579,-0.474573 h 5.62319 q 0.68576,0 1.16579,0.474573 0.48003,0.474574 0.48003,1.152535 v 2.779643 q 1.78296,-2.169477 4.52599,-3.593197 2.8116,-1.491516 6.92614,-1.491516 4.1831,0 7.26901,1.898293 3.0859,1.830497 4.73172,5.220306 1.71439,3.389809 1.71439,8.135542 v 19.050721 q 0,0.67797 -0.48003,1.15254 -0.48003,0.47458 -1.16579,0.47458 h -6.03466 q -0.68575,0 -1.16578,-0.47458 -0.48003,-0.47457 -0.48003,-1.15254 V 89.469246 q 0,-3.932179 -1.98869,-6.169453 -1.92012,-2.237274 -5.6232,-2.237274 -3.56593,0 -5.69178,2.237274 -2.12583,2.237274 -2.12583,6.169453 v 18.643944 q 0,0.67797 -0.48004,1.15254 -0.48003,0.47458 -1.16578,0.47458 z"
       style="font-style:normal;font-variant:normal;font-weight:500;font-stretch:normal;font-size:78.6667px;font-family:Rubik;-inkscape-font-specification:'Rubik Medium';fill:#e53e3e;fill-opacity:1;stroke-width:0.866755"
       id="path929" />
    <path
       d="m 391.23599,110.41826 q -4.11453,0 -7.06329,-0.94914 -2.88017,-0.94915 -4.73171,-2.37287 -1.85154,-1.42372 -2.74303,-2.84744 -0.89148,-1.42372 -0.96005,-2.37286 -0.0686,-0.74577 0.41145,-1.15254 0.5486,-0.47457 1.16578,-0.47457 h 5.41748 q 0.2743,0 0.48003,0.0678 0.20573,0.0678 0.5486,0.40678 0.89149,0.74575 1.85154,1.55931 1.02863,0.81355 2.40014,1.42372 1.37152,0.54237 3.42879,0.54237 2.67444,0 4.45741,-1.01694 1.85155,-1.08474 1.85155,-3.05084 0,-1.423712 -0.82291,-2.305063 -0.75434,-0.88135 -2.88018,-1.559312 -2.12584,-0.745758 -6.03466,-1.559312 -3.84023,-0.88135 -6.37753,-2.237273 -2.53729,-1.355924 -3.77165,-3.38981 -1.23437,-2.033886 -1.23437,-4.745733 0,-2.644051 1.57725,-5.016917 1.64581,-2.440662 4.80029,-3.999975 3.22305,-1.559312 7.95477,-1.559312 3.70308,0 6.4461,0.949147 2.74303,0.88135 4.526,2.237274 1.85154,1.355924 2.81159,2.779644 0.96006,1.355923 1.02864,2.372865 0.0686,0.745759 -0.41146,1.220332 -0.48003,0.406777 -1.09721,0.406777 h -5.07459 q -0.34288,0 -0.61718,-0.135592 -0.2743,-0.135593 -0.54861,-0.338981 -0.75433,-0.677962 -1.64581,-1.423721 -0.89148,-0.813553 -2.19442,-1.355923 -1.23436,-0.542369 -3.29162,-0.542369 -2.60588,0 -3.97739,1.152535 -1.37152,1.084739 -1.37152,2.779643 0,1.152535 0.61718,2.033885 0.68576,0.813555 2.67446,1.559313 1.98869,0.745758 6.03464,1.559312 4.59457,0.813554 7.26902,2.440662 2.74302,1.559312 3.84023,3.660994 1.16579,2.033886 1.16579,4.542346 0,3.050824 -1.85154,5.491484 -1.78297,2.44067 -5.3489,3.86439 -3.49735,1.35593 -8.7091,1.35593 z"
       style="font-style:normal;font-variant:normal;font-weight:500;font-stretch:normal;font-size:78.6667px;font-family:Rubik;-inkscape-font-specification:'Rubik Medium';fill:#e53e3e;fill-opacity:1;stroke-width:0.866755"
       id="path931" />
  </g>
  <path
     d="m 397.34586,33.243944 c -0.45417,0 -0.83947,-0.156936 -1.15678,-0.47081 -0.3173,-0.313873 -0.47596,-0.694968 -0.47596,-1.14337 v -4.573569 c 0,-0.448316 0.15866,-0.829497 0.47596,-1.14337 0.31731,-0.313874 0.70261,-0.47081 1.15678,-0.47081 h 20.95362 c 0.49862,0 0.88392,0.156936 1.1559,0.47081 0.31818,0.269058 0.47683,0.650153 0.47683,1.14337 v 4.573569 c 0,0.448402 -0.15865,0.829497 -0.47683,1.14337 -0.31731,0.313874 -0.70261,0.47081 -1.1559,0.47081 z"
     fill="#742a2a"
     id="path28"
     style="stroke-width:0.866755" />
  <path
     d="m 43.1255,78.6143 7.016,11.615 C 45.9006,89.765 41.8876,88.5426 38.241,86.7007 Z"
     fill="#e53e3e"
     id="path34" />
  <path
     d="m 69.9179,86.6117 c -0.0583,0.0298 -0.1166,0.0595 -0.175,0.089 l -4.8846,-8.0864 -7.016,11.615 c 4.3089,-0.4718 8.3825,-1.726 12.0756,-3.6176 z"
     fill="#e53e3e"
     id="path36" />
  <path
     d="m 80.9862,77.7085 c -0.1096,0.1329 -0.2202,0.2649 -0.3318,0.3961 l 2.8143,-4.659 -7.7441,-12.8204 -7.7441,12.8204 6.3349,10.4875 c 2.4858,-1.7772 4.7291,-3.8718 6.6708,-6.2246 z"
     fill="#e53e3e"
     id="path38" />
  <path
     d="M 61.7361,73.4456 53.992,60.6252 46.2479,73.4456 53.992,86.266 Z"
     fill="#e53e3e"
     id="path40" />
  <path
     d="m 33.6685,83.9331 6.3349,-10.4875 -7.7441,-12.8204 -7.7441,12.8204 2.8142,4.6589 c 1.864,2.1923 3.9936,4.1517 6.3391,5.8286 z"
     fill="#e53e3e"
     id="path42" />
  <path
     d="m 38.241,24.212 4.8846,8.0864 7.016,-11.6151 C 45.9007,21.1476 41.8876,22.37 38.241,24.212 Z"
     fill="#e53e3e"
     id="path44" />
  <path
     d="M 57.8423,20.6833 64.8584,32.2984 69.743,24.212 C 66.0963,22.37 62.0833,21.1476 57.8423,20.6833 Z"
     fill="#e53e3e"
     id="path46" />
  <path
     d="m 74.3155,26.9792 -6.335,10.4876 7.7441,12.8204 7.7441,-12.8204 -2.8145,-4.6593 c -1.864,-2.1922 -3.9934,-4.1514 -6.3387,-5.8283 z"
     fill="#e53e3e"
     id="path48" />
  <path
     d="M 46.2479,37.4673 53.992,24.647 61.7361,37.4673 53.992,50.2877 Z"
     fill="#e53e3e"
     id="path50" />
  <path
     d="m 27.3296,32.8076 -2.8144,4.6592 7.7441,12.8204 7.7441,-12.8204 -6.335,-10.4876 c -2.3453,1.6769 -4.4748,3.6363 -6.3388,5.8284 z"
     fill="#e53e3e"
     id="path52" />
  <path
     d="M 21.4173,68.2362 29.1371,55.4561 21.4173,42.676 c -1.5544,3.9589 -2.4079,8.2698 -2.4079,12.7801 0,4.5103 0.8535,8.8212 2.4079,12.7801 z"
     fill="#e53e3e"
     id="path54" />
  <path
     d="m 86.5662,68.2368 c 1.5544,-3.9589 2.408,-8.2699 2.408,-12.7802 0,-4.5282 -0.8604,-8.8554 -2.4265,-12.8272 0.0062,0.0157 0.0124,0.0314 0.0185,0.0471 l -7.7198,12.7801 z"
     fill="#e53e3e"
     id="path56" />
  <path
     d="m 57.1142,55.4566 7.744,-12.8204 7.7441,12.8204 -7.7441,12.8204 z"
     fill="#e53e3e"
     id="path58" />
  <path
     d="m 50.8697,55.4566 -7.7441,-12.8204 -7.744,12.8204 7.744,12.8204 z"
     fill="#e53e3e"
     id="path60" />
  <path
     fill-rule="evenodd"
     clip-rule="evenodd"
     d="M 91.9774,95.8679 C 99.7752,88.5368 105.451,78.974 107.984,68.1998 l -7.02,-3.9185 c 1.247,-5.9873 1.247,-11.725 0,-17.7123 l 7.007,-3.9113 C 105.427,31.8867 99.7416,22.3294 91.9356,15.0056 l -6.9379,3.8723 C 80.5073,15.136 75.5179,12.1423 70.0296,10.1465 V 2.3522 C 64.9546,0.822247 59.573,0 53.9992,0 48.4726,0 43.1348,0.808473 38.0976,2.31349 V 10.1465 C 32.3599,12.1423 27.3705,15.136 22.88,19.1274 L 15.9588,15.1035 C 8.19195,22.4279 2.53931,31.9699 0.0129767,42.7173 L 6.91407,46.569 c -0.99791,5.9873 -0.99791,11.725 0,17.7123 L 0,68.1402 c 2.52177,10.778 8.18702,20.3463 15.9761,27.6855 L 22.88,91.9722 c 4.4905,3.7421 9.4799,6.7358 15.2176,8.7318 v 7.895 c 5.0372,1.505 10.375,2.314 15.9016,2.314 5.5738,0 10.9554,-0.822 16.0304,-2.352 v -7.857 c 5.4883,-1.996 10.4777,-4.9897 14.9681,-8.7318 z m -37.9853,0.4954 c 22.5922,0 40.9069,-18.3146 40.9069,-40.9069 0,-22.5923 -18.3147,-40.9069 -40.9069,-40.9069 -22.5923,0 -40.9069,18.3146 -40.9069,40.9069 0,22.5923 18.3146,40.9069 40.9069,40.9069 z"
     fill="#e53e3e"
     id="path62" />
</svg>
